#!OML:ASF F:\VICON\USERDATA\INSTALL\rory3\rory3.ASF
:FULLY-SPECIFIED
:DEGREES
81
root -0.22709406193998377 17.78111929849348 36.208301807251786 -1.8345212986783523 -5.895321384594556 -7.847922691638885
lfemur -27.147735404562656 2.267514918827056 -11.29729704426125
ltibia 31.80384183009246
lfoot -3.094449631411557 -0.3211023729611711
ltoes -3.5005197163166475
rfemur 1.463685089049866 6.155093244252657 33.642052613899075
rtibia 34.42333412292074
rfoot -7.5564037661974846 -4.61466861458232
rtoes 4.357617554329803
lowerback 9.312200250589708 1.8484631991778833 5.6318144325756245
upperback 0.4714080408005367 3.2567035329797314 2.2719804018021756
thorax -4.823871641026729 1.2997212266923688 -1.0988052239902157
lowerneck -16.817058369328148 -2.8420288527257065 -2.1281187733843554
upperneck 19.978340719022853 -3.5806735285585956 1.6912729340021941
head 9.210896597458731 -1.791329710322151 0.27078098105670406
lclavicle -1.9521159855937687e-15 9.07805010053313e-16
lhumerus -34.70328437482543 1.934544605550375 84.57962708027593
lradius 21.546623412259915
lwrist 3.9204227892089416
lhand -26.950370088220822 23.723032882322887
lfingers 7.12502
lthumb -0.1910069056798973 54.4395509730054
rclavicle -1.953474434027362e-15 9.065538929497823e-16
rhumerus -23.87503795872908 -10.34273817283525 -81.78833720731078
rradius 24.90327301462405
rwrist 4.878377853757117
rhand -17.861543043234846 22.546042583418405
rfingers 7.12502
rthumb 8.539870557602459 -6.882435501711282
82
root -0.20124445953874565 17.733958301318772 36.83327283594467 -1.3557513689897043 -6.6238424625517425 -8.092731408781288
lfemur -27.433688489388473 0.023915601594131086 -9.961413683072141
ltibia 27.45365586171362
lfoot -3.181850323236467 -0.5435149989539805
ltoes -3.4201461614583444
rfemur 2.6913259854119875 6.057136715146612 33.4767767286175
rtibia 35.03509595027482
rfoot -7.669908951167626 -4.66418681903066
rtoes 3.498514567097205
lowerback 9.241720075737843 2.035532331842477 5.878879300551439
upperback 0.42544689099765337 3.5889945769082146 2.2535669579775983
thorax -4.817000674375958 1.3944437585226288 -1.223181177106012
lowerneck -16.82301142923136 -2.8308629204765094 -2.087324709547045
upperneck 19.960256451820662 -3.568177791133793 1.6551653859991449
head 9.213216687212894 -1.783449832942446 0.26935095854097646
lclavicle -1.952115985593769e-15 9.078050100533126e-16
lhumerus -35.42197385646743 3.1542457311101533 84.13364519951992
lradius 21.082190087442978
lwrist 3.7673711673231707
lhand -26.971551065932935 23.698777813522938
lfingers 7.12502
lthumb -0.24967592503353953 54.318707534139584
rclavicle -1.953474434027362e-15 9.065538929497823e-16
rhumerus -23.515066486659506 -10.270403294584428 -81.81217083781229
rradius 25.077102299951452
rwrist 4.767512191055772
rhand -17.87705645478429 22.534844811352027
rfingers 7.12502
rthumb 8.55097725201436 -6.868067177127895
83
root -0.16670348446391609 17.68588447368622 37.534990403031266 -1.0539613184148862 -7.167281244537355 -8.118516122331474
lfemur -26.558387426589288 -3.4804211648384498 -8.018906743816228
ltibia 26.048693439252553
lfoot -3.40006897086979 -0.4091301768364896
ltoes -2.6745964279042065
rfemur 3.9506895406698206 6.044991267059289 33.084068955712645
rtibia 35.880440085758764
rfoot -7.3414896316667 -4.448677660076153
rtoes 2.552886663583378
lowerback 9.206937970872792 2.2392414147248925 6.104351000549842
upperback 0.3902938900782536 3.862774808909882 2.2379393153421563
thorax -4.81528979746017 1.4651668123008603 -1.330089421265023
lowerneck -16.834101969427362 -2.8305323919995073 -2.071795462458924
upperneck 19.945075565694744 -3.5577748249056764 1.636952628422445
head 9.204239082259177 -1.7772252871124734 0.26066883835894483
lclavicle -1.9521159855937687e-15 9.07805010053313e-16
lhumerus -36.08760577494028 4.253482456279804 83.58505213870811
lradius 20.847773545736267
lwrist 3.5445143991176264
lhand -26.955020220330972 23.735963382583463
lfingers 7.12502
lthumb -0.21077474594932583 54.4188834741221
rclavicle -1.953474434027362e-15 9.065538929497825e-16
rhumerus -23.3804874914981 -10.523751299643688 -81.79499420895208
rradius 25.249285661179943
rwrist 4.7253549091950315
rhand -17.877809792055647 22.54362274569724
rfingers 7.12502
rthumb 8.549246116143658 -6.88541675613057
84
root -0.12245429993873086 17.644409542368344 38.418709664575005 -1.0135839089067713 -7.417140244080725 -7.8766340437751285
lfemur -25.353192108221197 -7.130143370887916 -6.62979922098245
ltibia 26.832614155508615
lfoot -3.831588137452347 -0.5284148423249619
ltoes -3.0679848995348338
rfemur 4.108258448036128 5.8735129878528465 32.35443511351585
rtibia 37.08430869473679
rfoot -6.5199975248317195 -4.136031500172632
rtoes 2.091233006728869
lowerback 9.182971121531928 2.3804389744349623 6.065702306448661
upperback 0.36367384732122077 4.044278086679615 2.1943863961853474
thorax -4.817853884030758 1.5134398618592875 -1.3561632627726214
lowerneck -16.828142347913573 -2.8226928528186614 -2.033702927935532
upperneck 19.959635708496457 -3.5417809418543054 1.6444680983928335
head 9.178529539638983 -1.7859015017493185 0.2334308563959563
lclavicle -1.9521159855937683e-15 9.078050100533136e-16
lhumerus -36.586786119419045 5.311360199120566 83.00889632249411
lradius 20.77894211639431
lwrist 3.3748786413989293
lhand -26.91512305824061 23.817193960683927
lfingers 7.12502
lthumb -0.22962633271743876 54.37163401452721
rclavicle -1.953474434027362e-15 9.065538929497825e-16
rhumerus -23.56043773654556 -11.156988317561222 -81.76928862849601
rradius 25.381270961577222
rwrist 4.959088043950577
rhand -17.864474259277397 22.58044130953842
rfingers 7.12502
rthumb 8.515466425413766 -6.989822260706838
